<svg width="30" height="31" viewBox="0 0 30 31" fill="none" xmlns="http://www.w3.org/2000/svg">
<g opacity="0.58">
<path d="M20 10.6497V20.0208C19.9996 21.7646 19.4738 23.465 18.4955 24.8859C17.5173 26.3068 16.1351 27.3777 14.541 27.9499C12.9469 28.5221 11.2199 28.5671 9.59985 28.0788C7.9798 27.5905 6.5471 26.5931 5.50067 25.225C4.45424 23.857 3.84602 22.1861 3.76045 20.4446C3.67489 18.703 4.11624 16.9771 5.02321 15.5066C5.93018 14.036 7.25776 12.8938 8.82162 12.2385C10.3855 11.5831 12.108 11.4473 13.75 11.8497V15.9352C12.8935 15.5154 11.9283 15.3944 10.9995 15.5904C10.0707 15.7865 9.2287 16.2889 8.60013 17.0221C7.97156 17.7553 7.59046 18.6797 7.51419 19.6561C7.43792 20.6324 7.6706 21.608 8.17721 22.4359C8.68383 23.2638 9.43697 23.8993 10.3233 24.2467C11.2096 24.5942 12.1811 24.6347 13.0917 24.3623C14.0022 24.0899 14.8025 23.5193 15.3721 22.7363C15.9417 21.9533 16.2498 21.0003 16.25 20.0208V2.58325H20C20 4.29611 20.6585 5.93881 21.8306 7.14998C23.0027 8.36116 24.5924 9.04158 26.25 9.04158V12.9166C23.9774 12.9201 21.7719 12.1202 20 10.6497Z" fill="#FFF6EF"/>
</g>
</svg>
