<svg width="34" height="34" viewBox="0 0 34 34" fill="none" xmlns="http://www.w3.org/2000/svg">
<path d="M25.5 5.66675L29.75 9.91675L25.5 14.1667M25.5 28.3334L29.75 24.0834L25.5 19.8334" stroke="#FFE4CE" stroke-width="3.33333" stroke-linecap="round" stroke-linejoin="round"/>
<path d="M4.25 9.91676H8.5C10.3786 9.91676 12.1803 10.663 13.5087 11.9914C14.8371 13.3198 15.5833 15.1215 15.5833 17.0001C15.5833 18.8787 16.3296 20.6804 17.658 22.0088C18.9864 23.3371 20.788 24.0834 22.6667 24.0834H29.75M29.75 9.91676H22.6667C21.1337 9.9145 19.6417 10.4118 18.4167 11.3334M12.75 22.6668C11.5247 23.5878 10.0329 24.0851 8.5 24.0834H4.25" stroke="#FFE4CE" stroke-width="3.33333" stroke-linecap="round" stroke-linejoin="round"/>
</svg>
