<svg width="30" height="31" viewBox="0 0 30 31" fill="none" xmlns="http://www.w3.org/2000/svg">
<g opacity="0.58">
<path d="M5 10.3334C5 8.96313 5.52678 7.64897 6.46447 6.68003C7.40215 5.71109 8.67392 5.16675 10 5.16675H20C21.3261 5.16675 22.5979 5.71109 23.5355 6.68003C24.4732 7.64897 25 8.96313 25 10.3334V20.6667C25 22.037 24.4732 23.3512 23.5355 24.3201C22.5979 25.2891 21.3261 25.8334 20 25.8334H10C8.67392 25.8334 7.40215 25.2891 6.46447 24.3201C5.52678 23.3512 5 22.037 5 20.6667V10.3334Z" stroke="white" stroke-width="3.33333" stroke-linecap="round" stroke-linejoin="round"/>
<path d="M20.625 9.6875V9.70042M11.25 15.5C11.25 16.5277 11.6451 17.5133 12.3483 18.24C13.0516 18.9667 14.0054 19.375 15 19.375C15.9946 19.375 16.9484 18.9667 17.6517 18.24C18.3549 17.5133 18.75 16.5277 18.75 15.5C18.75 14.4723 18.3549 13.4867 17.6517 12.76C16.9484 12.0333 15.9946 11.625 15 11.625C14.0054 11.625 13.0516 12.0333 12.3483 12.76C11.6451 13.4867 11.25 14.4723 11.25 15.5Z" stroke="white" stroke-width="3.33333" stroke-linecap="round" stroke-linejoin="round"/>
</g>
</svg>
